:SAMPLES-PER-SECOND 30
:FRAME-RANGE 1-2775
:FULLY-SPECIFIED
:DEGREES
1388
root  17.9002 39.6011 27.2392 -178.356 -38.4625 177.189
RightUpLeg  -11.5998 -1.30413 -7.88497
RightLeg  37.3287 -9.00694 -7.55351
RightFoot  -8.10118 -0.433167 13.3031
RightToes  -5.28216e-011 1.2921e-014 -6.02303e-014
Spine  8.70985 -0.0737427 -1.94179
Spine1  -3.88483 -0.401452 -0.169787
HEad  -4.56619 17.1659 -6.05649
LeftShoulder1  1.03291 0.72195 -31.0608
LeftArm  20.8133 12.3087 -23.5123
LeftForeArm  -7.20031 -19.6816 -7.93168
LeftHand  0.262403 -0.920792 -4.76124
RightShoulder  2.22257 0.910166 44.1227
RightArm  23.1481 -7.37706 10.539
RightForeArm  4.94459 15.5114 10.638
RightHand  0.693403 9.0264 5.16596
LeftUpLeg  -6.54696 9.55277 -3.21578
LeftLeg  14.593 6.16721 -1.94858
LeftFoot  -6.52514 -0.112865 3.61773
LeftToes  -2.158e-010 -1.26819e-010 -1.05346e-011
1389
root  17.7583 39.7069 26.8686 -178.499 -39.5958 177.687
RightUpLeg  -10.836 3.9721 -6.59703
RightLeg  27.0373 -10.9893 -6.24986
RightFoot  -7.56806 -0.472544 12.7275
RightToes  -5.28216e-011 1.2921e-014 -6.02303e-014
Spine  8.77661 -0.412406 -1.5061
Spine1  -3.90073 -0.67145 0.19615
HEad  -5.22679 17.3817 -6.05944
LeftShoulder1  1.01965 0.737414 -30.7871
LeftArm  21.6869 11.8766 -23.235
LeftForeArm  -8.38693 -21.2907 -6.5626
LeftHand  0.280014 -1.16897 -4.8673
RightShoulder  1.87783 0.296396 43.2969
RightArm  19.09 -7.79573 9.3258
RightForeArm  7.55013 13.3131 12.0676
RightHand  0.705257 9.01913 5.26383
LeftUpLeg  -5.95669 9.94612 -2.59069
LeftLeg  14.1431 4.74933 -2.066
LeftFoot  -6.42302 -0.0944716 3.10024
LeftToes  -2.158e-010 -1.26819e-010 -1.05346e-011
1390
root  17.6357 39.7827 26.5138 -178.522 -40.7585 177.963
RightUpLeg  -10.7257 8.27275 -5.77379
RightLeg  18.5015 -10.0652 -3.93743
RightFoot  -6.04974 -0.406243 7.88619
RightToes  -5.28216e-011 1.2921e-014 -6.02303e-014
Spine  8.85951 -0.727504 -0.644829
Spine1  -3.87726 -0.869422 0.318842
HEad  -5.70656 17.2879 -5.89229
LeftShoulder1  1.05629 0.62635 -30.638
LeftArm  21.5653 11.1485 -22.7585
LeftForeArm  -8.2229 -22.4783 -5.75851
LeftHand  0.287812 -1.32627 -4.87212
RightShoulder  1.49641 -0.403733 42.3015
RightArm  14.4325 -8.28984 8.31242
RightForeArm  10.8156 10.61 13.4397
RightHand  0.658359 8.72207 5.00482
LeftUpLeg  -5.58293 11.6205 -2.2251
LeftLeg  14.1081 1.92597 -2.12488
LeftFoot  -6.413 -0.0788384 2.72936
LeftToes  -2.158e-010 -1.26819e-010 -1.05346e-011
1391
root  17.5447 39.7505 26.1786 -178.628 -41.7683 178.003
RightUpLeg  -11.7081 7.37059 -5.06594
RightLeg  17.2817 -10.59 -4.01957
RightFoot  -4.21978 -0.374697 5.55409
RightToes  -5.28216e-011 1.2921e-014 -6.02303e-014
Spine  9.33126 -0.924095 0.450663
Spine1  -3.88152 -0.911902 -0.0700481
HEad  -6.10452 16.9783 -5.97639
LeftShoulder1  1.09295 0.545933 -30.8826
LeftArm  20.9933 9.80812 -21.9672
LeftForeArm  -7.59704 -23.312 -5.45356
LeftHand  0.285613 -1.39601 -4.77713
RightShoulder  1.21255 -0.939513 41.4579
RightArm  9.65176 -8.69142 7.07473
RightForeArm  14.1164 7.69543 14.4873
RightHand  0.633615 8.5967 4.85128
LeftUpLeg  -5.71109 13.0445 -2.29843
LeftLeg  15.3964 -0.524374 -1.47661
LeftFoot  -7.12276 -0.0352091 2.12013
LeftToes  -2.158e-010 -1.26819e-010 -1.05346e-011
1392
root  17.4927 39.6184 25.8832 -178.805 -42.4969 177.931
RightUpLeg  -11.9413 2.78942 -4.80308
RightLeg  19.0486 -7.6517 -3.13783
RightFoot  -5.6493 -0.287314 5.00181
RightToes  -5.28216e-011 1.2921e-014 -6.02303e-014
Spine  10.0715 -1.03508 1.52784
Spine1  -4.05173 -0.838971 -0.710423
HEad  -6.11038 16.469 -6.17872
LeftShoulder1  1.12 0.481105 -30.9867
LeftArm  20.1865 8.36506 -21.652
LeftForeArm  -7.1181 -23.4668 -5.41611
LeftHand  0.269935 -1.35964 -4.53613
RightShoulder  1.1042 -1.12233 40.6217
RightArm  5.3425 -9.09071 6.06109
RightForeArm  16.7619 4.85965 15.1087
RightHand  0.595213 8.19085 4.68921
LeftUpLeg  -6.7499 15.4171 -2.37341
LeftLeg  18.6043 -3.39211 -1.08249
LeftFoot  -8.31207 0.0162345 1.27665
LeftToes  -2.158e-010 -1.26819e-010 -1.05346e-011
1393
root  17.4359 39.5128 25.5994 -179.567 -43.6054 178.73
RightUpLeg  -10.8685 -0.686229 -4.2752
RightLeg  18.7414 -4.6194 -2.03158
RightFoot  -7.08521 -0.282172 6.28888
RightToes  -5.28216e-011 1.2921e-014 -6.02303e-014
Spine  10.4329 -1.29195 2.96382
Spine1  -3.98904 -1.0235 -0.264902
HEad  -5.70032 15.8338 -6.34867
LeftShoulder1  1.14625 0.404024 -30.9128
LeftArm  19.3983 7.28836 -21.8411
LeftForeArm  -6.9712 -23.3927 -5.41196
LeftHand  0.256042 -1.36001 -4.29609
RightShoulder  1.05604 -1.18921 39.9284
RightArm  2.12914 -9.25908 5.10056
RightForeArm  18.6176 2.51042 15.3742
RightHand  0.595165 8.09681 4.72604
LeftUpLeg  -8.4022 15.35 -1.30824
LeftLeg  22.9651 -3.99859 -1.52511
LeftFoot  -8.91179 0.0495836 0.18724
LeftToes  -2.158e-010 -1.26819e-010 -1.05346e-011
1394
root  17.4209 39.4025 25.2857 179.411 -44.7453 -179.605
RightUpLeg  -10.4653 -1.21521 -2.52212
RightLeg  18.9595 -5.42001 -2.65261
RightFoot  -8.23121 -0.232101 6.47925
RightToes  -5.28216e-011 1.2921e-014 -6.02303e-014
Spine  10.2967 -1.43602 4.35368
Spine1  -3.95322 -1.20526 0.923068
HEad  -5.05184 15.0224 -6.2478
LeftShoulder1  1.16318 0.354003 -30.8635
LeftArm  19.0038 6.42112 -22.1935
LeftForeArm  -6.8272 -23.4629 -5.40074
LeftHand  0.257637 -1.40436 -4.29089
RightShoulder  0.926865 -1.4609 39.7545
RightArm  -0.0610118 -9.1746 4.32316
RightForeArm  19.5965 1.13289 15.3712
RightHand  0.559832 7.8057 4.5354
LeftUpLeg  -11.6984 14.6844 0.467869
LeftLeg  29.3692 -4.07003 -2.13504
LeftFoot  -8.67465 0.123756 -3.08097
LeftToes  -2.158e-010 -1.26819e-010 -1.05346e-011
1395
root  17.4275 39.2603 24.9774 178.319 -45.0863 -178.057
RightUpLeg  -10.3456 -1.15068 -0.959028
RightLeg  19.8154 -5.63732 -2.99007
RightFoot  -10.2242 -0.142361 7.45806
RightToes  -5.28216e-011 1.2921e-014 -6.02303e-014
Spine  10.6227 -1.33656 5.75549
Spine1  -4.4224 -1.02906 1.52995
HEad  -4.40008 14.2012 -5.70095
LeftShoulder1  1.14475 0.378954 -30.5655
LeftArm  19.0604 5.9109 -22.4735
LeftForeArm  -6.44234 -23.9112 -5.43097
LeftHand  0.272043 -1.52665 -4.44532
RightShoulder  0.765807 -1.81605 39.8892
RightArm  -0.854078 -9.1139 4.02812
RightForeArm  19.4172 0.883651 15.3191
RightHand  0.524606 7.71924 4.25911
LeftUpLeg  -15.8664 15.567 2.29053
LeftLeg  37.0901 -4.16473 -3.01357
LeftFoot  -5.94685 0.317879 -5.98795
LeftToes  -2.158e-010 -1.26819e-010 -1.05346e-011
1396
root  17.3641 39.0704 24.6713 177.114 -45.7274 -177.041
RightUpLeg  -9.80287 -1.48397 -0.1916
RightLeg  21.3084 -5.42486 -3.05886
RightFoot  -13.3334 0.0837916 10.0145
RightToes  -5.28216e-011 1.2921e-014 -6.02303e-014
Spine  11.1693 -1.6024 6.7963
Spine1  -4.80688 -1.19479 1.94672
HEad  -4.01995 13.6898 -5.18829
LeftShoulder1  1.11876 0.425455 -30.2708
LeftArm  19.0571 5.7388 -22.142
LeftForeArm  -5.55543 -24.6524 -5.55379
LeftHand  0.328308 -1.81611 -5.14746
RightShoulder  0.540706 -2.29792 39.6779
RightArm  0.815844 -9.13416 4.41428
RightForeArm  16.9252 2.22389 15.3986
RightHand  0.574172 7.85882 4.63963
LeftUpLeg  -19.6119 16.3192 3.7214
LeftLeg  44.1347 -3.76483 -3.51412
LeftFoot  -1.3918 0.814694 -9.25036
LeftToes  -2.158e-010 -1.26819e-010 -1.05346e-011
1397
root  17.2334 38.8834 24.3816 175.771 -46.6851 -175.818
RightUpLeg  -9.01151 -3.00192 0.432617
RightLeg  22.3647 -4.68662 -2.62117
RightFoot  -16.2324 0.398327 11.8752
RightToes  -5.28216e-011 1.2921e-014 -6.02303e-014
Spine  11.3672 -1.97672 7.90704
Spine1  -5.0667 -1.49806 2.50549
HEad  -3.75052 13.1794 -4.81993
LeftShoulder1  1.16082 0.317059 -30.357
LeftArm  19.6656 4.77827 -20.7894
LeftForeArm  -5.87885 -25.1336 -5.67898
LeftHand  0.404377 -1.90652 -6.2867
RightShoulder  0.232459 -2.96369 39.2681
RightArm  3.50058 -9.39192 4.85006
RightForeArm  13.8523 4.4465 15.2425
RightHand  0.720971 8.19866 5.75455
LeftUpLeg  -22.6614 16.2103 5.06824
LeftLeg  49.2217 -3.09276 -3.41569
LeftFoot  2.67688 1.25373 -10.3096
LeftToes  -2.158e-010 -1.26819e-010 -1.05346e-011
1398
root  17.0653 38.7541 24.0822 174.934 -46.8875 -174.821
RightUpLeg  -8.49328 -3.75667 1.02001
RightLeg  22.9671 -3.9429 -2.14793
RightFoot  -17.9523 0.617886 12.767
RightToes  -5.28216e-011 1.2921e-014 -6.02303e-014
Spine  11.2653 -1.94563 8.81344
Spine1  -5.40791 -1.42664 2.79715
HEad  -3.5529 12.5781 -4.21065
LeftShoulder1  1.16998 0.259025 -29.9838
LeftArm  19.1233 3.11702 -19.7331
LeftForeArm  -7.33286 -24.4555 -5.59651
LeftHand  0.470609 -1.96631 -7.27499
RightShoulder  -0.0272153 -3.5334 39.3684
RightArm  3.78921 -9.22895 4.4226
RightForeArm  13.5005 5.36136 14.9854
RightHand  0.87975 8.54382 6.90984
LeftUpLeg  -24.6279 15.9185 6.23725
LeftLeg  50.7448 -1.37323 -1.3673
LeftFoot  3.81105 1.249 -9.54927
LeftToes  -2.158e-010 -1.26819e-010 -1.05346e-011
1399
root  16.9123 38.8005 23.7632 175.084 -46.6409 -175.079
RightUpLeg  -7.65235 -4.40316 0.864519
RightLeg  22.315 -3.12832 -1.53909
RightFoot  -17.5475 0.53954 12.1148
RightToes  -5.28216e-011 1.2921e-014 -6.02303e-014
Spine  11.3504 -1.60734 8.065
Spine1  -5.95442 -1.24343 3.2082
HEad  -3.67282 12.0968 -3.54615
LeftShoulder1  1.10913 0.331957 -28.8747
LeftArm  17.6145 1.15718 -18.6236
LeftForeArm  -10.0817 -23.9374 -5.61191
LeftHand  0.491178 -1.80617 -7.7842
RightShoulder  -0.0607037 -3.60648 39.437
RightArm  0.768696 -8.95056 3.51879
RightForeArm  14.5677 4.4166 14.9105
RightHand  0.888464 8.34765 7.09091
LeftUpLeg  -25.2655 16.8335 6.79853
LeftLeg  48.7965 -0.73596 -0.480284
LeftFoot  1.79335 0.930445 -8.16793
LeftToes  -2.158e-010 -1.26819e-010 -1.05346e-011
1400
root  16.751 38.8823 23.4617 175.347 -46.5906 -175.532
RightUpLeg  -6.88905 -4.71738 0.683861
RightLeg  21.754 -2.87863 -1.31094
RightFoot  -16.2966 0.321032 9.95754
RightToes  -5.28216e-011 1.2921e-014 -6.02303e-014
Spine  11.3162 -1.12676 6.63868
Spine1  -5.96511 -1.09906 4.38193
HEad  -4.57941 11.4402 -3.1667
LeftShoulder1  1.10897 0.265717 -28.1386
LeftArm  14.3446 -2.52703 -16.4673
LeftForeArm  -11.7925 -23.3329 -5.66362
LeftHand  0.498918 -1.85099 -7.85556
RightShoulder  -0.0488469 -3.58162 39.0399
RightArm  -1.43094 -8.9029 2.72168
RightForeArm  11.9268 4.01859 14.932
RightHand  0.858386 7.79356 7.15344
LeftUpLeg  -24.7062 17.127 7.43806
LeftLeg  43.6207 -1.97681 -1.63159
LeftFoot  0.0363588 0.792265 -7.94816
LeftToes  -2.158e-010 -1.26819e-010 -1.05346e-011
